<?xml version="1.0" encoding="UTF-8"?>
<svg width="125.42mm" height="130.85mm" version="1.1" viewBox="0 0 444.38475 463.6484" xmlns="http://www.w3.org/2000/svg">
 <g transform="translate(-106.65 -203.47)">
  <path d="m269.16 203.47c-20.754 6.0778-40.55 17.157-55.684 34.473l7.5781 18.443-17.645-4.8476c-7.0916 11.413-12.443 24.874-15.398 40.609-9.5072 50.619 8.865 143.01 9.9453 169.7 0.0441 1.0891 0.0742 2.2387 0.11523 3.3457l14.133 8.4824-13.764 5.7969c0.24656 22.519-1.3051 47.083-9.7363 68.424-15.864-10.437-36.37-4.0178-44.779 7.4062l12.174 15.736-15.152 1.5156 8.082 7.0723-12.555 1.1621c-0.77233 10.232 1.0565 20.712 8.1797 28.426 81.208 19.011 163.66 38.345 243.9 57.125 0.0302 7e-3 0.0597 0.0122 0.0898 0.0195 0.26064 0.12224 2.3162 0.70557 3.1367 0.76171-1.2721-0.34268-1.8057-0.46975-2.3008-0.58789 18.88 3.9085 34.635-15.208 43.529-30.277 33.201-53.369 31.711-115.75 24.008-175.31-0.70233-6.3564-1.5238-12.902-2.3906-19.582l-21.334-4.1777 17.174-12.627-21.213-4.5449 20.887-14.082c-4.2018-36.523-6.229-74.519 4.332-107.19 24.888-3.4317 41.928 0.69698 67.801 3.043 15.642 1.4184 25.098-8.3441 28.367-21.002l-15.781-9.7656 16.17-9.7129c-0.46495-2.2976-1.0986-4.5646-1.9219-6.7578-8.0172-21.357-28.96-26.443-45.691-30.9-16.731-4.4573-65.067-10.606-131.25-5.9648s-90.843-5.8188-103.01-14.211z" fill="#7a542e" fill-rule="evenodd"/>
  <path d="m454.57 236.16-20.707 35.861 77.762-12.18c-7.2153 7.9397-5.5676 23.158 0.8164 30.945 8.2259 10.034 21.148 7.3891 27.93-3.9356 1.2935-2.1598 2.307-4.4998 3.0644-6.9453l-14.588-8.9961 15.705-9.4004c-1.141-6.8912-3.9699-13.318-8.25-17.873-2.4614-2.6192-5.3022-4.5602-8.3106-5.6992l-73.422-1.7774z" fill="#9c6c3b" fill-rule="evenodd"/>
  <path d="m431.59 260.31c16.334 0.93499 16.113 2.8928 28.275 3.4035 12.163 0.51066 30.388-1.4702 51.761-3.8747-10.943 16.833 0.1026 35.404 10.06 37.024-25.479-3.1945-43.069-9.3341-76.86-6.6217-10.687 0.85782-16.481 1.2751-31.937-1.1761 3.6988-7.7856 15.026-19.719 18.701-28.755z" fill="#c69956" fill-rule="evenodd"/>
  <path d="m458.03 289.59c6.25-11.25 14.753-21.423 20.467-26.423l-17.414 0.5879-19.571 26.744z" fill="#9c6c3b" fill-rule="evenodd"/>
  <path d="m270.67 210.19c-23.743 7.7047-40.9 18.437-53.125 31.52l7.7012 18.744-18.266-5.0215c-33.077 52.725-8.5662 133.42-4.2207 210.47l14.424 8.6543-13.867 5.8379c0.75924 38.728-4.8997 76.014-27.1 107.75-3.8952 5.568-13.25 16.29-26.221 16.414l240.72 56.379c14.941 1.2031 26.759-11.8 31.428-17.857 43.064-55.876 35.671-130.49 26.766-200.75l-21.109-4.1348 17.174-12.627-21.213-4.5449 20.742-13.984c-9.5605-81.286-9.4668-150.77 83.488-169.1-97.67-36.786-206.05 7.5986-257.32-27.748z" fill="#f2cb8a" fill-rule="evenodd"/>
  <path d="m289.91 608.07s72.593 27.156 89.398-18.687c41.329-112.74-125.14-74.261-121.72-150.34 3.0304-67.509 162.22-28.365 158.59-94.277-4.5457-82.662-103.04-36.027-103.04-36.027" fill="none" stroke="#7a542e" stroke-dasharray="30, 10" stroke-dashoffset="12" stroke-linecap="round" stroke-width="5"/>
  <path d="m192.69 556.88 1.5152-4.0406c28.393 7.8571 30.36 7.462 48.988 9.9715 13.785 1.857 23.305 2.3468 45.946 5.1564 22.112 2.7439 49.812 7.8953 61.763 11.116 20.996 5.6581 35.493 10.371 42.703 16.366s1.8724 5.6246 1.8724 5.6246l-89.146-8.5863-114.4-22.728z" fill="#c69956" fill-rule="evenodd"/>
  <path transform="matrix(-.33604 .60802 .41331 .49434 .80168 568.14)" d="m-431.98 625.52c-13.475-12.087-8.8006-33.597 4.149-44.003 17.709-14.231 43.926-8.1884 56.687 9.5973 10.773 15.015 10.929 35.505 1.5008 51.206 11.834-22.796-8.4854-48.931-28.609-53.217-9.7903 13.673-20.243 25.689-33.727 36.417z" fill="#9c6c3b" fill-rule="evenodd" stroke="#9c6c3b" stroke-width="1.5478"/>
  <path d="m169.17 546.79c-8.2222 0.1153-15.139 5.145-19.941 12.344l10.371 13.406-15.152 1.5156 8.082 7.0723-10.492 0.97071c-0.23877 8.5488 2.1556 16.834 7.9551 22.457 0 0 210.16 49.195 237.61 55.678-24.902-8.0044-24.56-68.909 4.168-65.014-21.467-8.41-33.283-13.704-74.105-18.988s-101.17-10.832-147.37-29.426c-0.37944-0.0153-0.7567-0.0209-1.1309-0.0156zm218.43 113.44c0.92851 0.29845 1.8882 0.53054 2.8867 0.67578-0.26264-0.0621-2.5762-0.60247-2.8867-0.67578z" fill="#f2cb8a" fill-rule="evenodd"/>
  <path d="m270.67 210.19c-23.758 7.7096-40.896 18.462-53.105 31.564l7.6816 18.699-18.205-5.0039c-3.5959 5.7408-6.519 11.808-8.8555 18.168 18.977 10.807 44.016 26.243 65.262 25.766 48.978-1.9396 55.55-13.699 106.83-33.139 51.278-19.44 115.76-21.965 157.71-28.307-97.67-36.786-206.05 7.5986-257.32-27.748z" fill="#fbedbf" fill-rule="evenodd"/>
  <path d="m369.7 628.1s-48.024-0.99637-77.592-7.0504-70.363-19.435-95.27-25.233c-24.906-5.798-54.674-10.06-54.674-10.06 0.46232 7.2099 2.8696 13.989 7.834 18.803 0 0 217.01 50.798 240.5 56.354-13.028-1.895-20.025-17.35-20.797-32.812z" fill="#c69956" fill-rule="evenodd"/>
  <path d="m170.3 546.8c-8.2927-0.33461-15.293 4.3576-20.283 11.289 13.723 9.805 33.704 20.544 58.607 23.236 61.772 6.678 137.07 6.6114 183.15 13.889-21.467-8.41-33.283-13.704-74.105-18.988s-101.17-10.832-147.37-29.426z" fill="#fbedbf" fill-rule="evenodd"/>
  <path d="m250.07 261.88-8.5306 31.495-24.442-14.303-9.0441 28.753 27.649 3.4007-10.455 29.573 28.753 9.0441-0.44721-33.421 33.421 16.227 9.0441-28.753-34.704-4.042 17.509-28.929z" color="#000000" fill="#7a542e"/>
  <g transform="matrix(.54503 .94384 -.94384 .54503 370.22 -541.12)">
   <path d="m619.48 426.07a62.377 62.377 0 0 0 -62.377 62.377 62.377 62.377 0 0 0 62.377 62.377 62.377 62.377 0 0 0 62.377 -62.377 62.377 62.377 0 0 0 -62.377 -62.377zm-2.0215 7.0703a50.255 55.306 0 0 1 50.256 55.307 50.255 55.306 0 0 1 -50.256 55.305 50.255 55.306 0 0 1 -50.254 -55.305 50.255 55.306 0 0 1 50.254 -55.307z" color="#000000" fill="#494e4a"/>
   <path d="m607.35 547.29c8.8468 4.1889 13.282 3.9478 21.466 0.75762l3.0305 77.782c-6.9835 9.8496-18.538 11.85-27.527 0.25254z" color="#000000" fill="#494e4a"/>
   <path d="m616.82 428.34a58.21 60.104 0 0 0 -58.209 60.105 58.21 60.104 0 0 0 58.209 60.104 58.21 60.104 0 0 0 58.211 -60.104 58.21 60.104 0 0 0 -58.211 -60.105zm-2.6523 2.7793a52.528 57.452 0 0 1 52.529 57.451 52.528 57.452 0 0 1 -52.529 57.453 52.528 57.452 0 0 1 -52.527 -57.453 52.528 57.452 0 0 1 52.527 -57.451z" color="#000000" fill="#faf1e8"/>
   <path d="m609.24 553.55c5.5191 3.2666 8.286 3.0785 13.391 0.59081l1.8906 60.655c-4.3567 7.6809-11.565 9.241-17.173 0.19693z" color="#000000" fill="#faf1e8"/>
   <path d="m598.36 439.55a50.634 53.664 0 0 0 -28.576 40.814h12.279a46.72 64.271 0 0 1 16.297 -40.814zm-28.674 55.461a50.634 53.664 0 0 0 26.633 40.543 46.72 64.271 0 0 1 -14.467 -40.543h-12.166z" color="#000000" fill="#faf1e8"/>
  </g>
 </g>
</svg>
